<svg width="196" height="117" viewBox="0 0 196 117" fill="none" xmlns="http://www.w3.org/2000/svg">
<g id="Clip path group">
<mask id="mask0_163_206" style="mask-type:luminance" maskUnits="userSpaceOnUse" x="0" y="0" width="219" height="220">
<g id="35b1daa682">
<path id="Vector" d="M0.183594 98.523L97.7875 0.919158L218.951 122.083L121.347 219.686L0.183594 98.523Z" fill="white"/>
</g>
</mask>
<g mask="url(#mask0_163_206)">
<g id="Group">
<g id="Clip path group_2">
<mask id="mask1_163_206" style="mask-type:luminance" maskUnits="userSpaceOnUse" x="18" y="39" width="161" height="159">
<g id="797361a7b8">
<path id="Vector_2" d="M156.805 60.0153C189.357 92.5674 182.441 154.332 151.743 185.031C121.031 215.742 86.5203 184.86 53.9813 152.321C21.4423 119.782 3.19418 97.9051 33.9057 67.1936C64.6042 36.4951 124.266 27.4763 156.805 60.0153Z" fill="white"/>
</g>
</mask>
<g mask="url(#mask1_163_206)">
<g id="Group_2">
<path id="Vector_3" d="M1.37988 99.7194L119.217 217.557L216.782 119.992L98.9443 2.15499L1.37988 99.7194Z" fill="url(#paint0_linear_163_206)"/>
</g>
</g>
</g>
</g>
</g>
</g>
<defs>
<linearGradient id="paint0_linear_163_206" x1="50.1621" y1="50.9372" x2="167.999" y2="168.774" gradientUnits="userSpaceOnUse">
<stop stop-color="#66E0E7"/>
<stop offset="1" stop-color="#279EA5"/>
</linearGradient>
</defs>
</svg>
