<svg width="198" height="197" viewBox="0 0 198 197" fill="none" xmlns="http://www.w3.org/2000/svg">
<g id="Clip path group">
<mask id="mask0_163_197" style="mask-type:luminance" maskUnits="userSpaceOnUse" x="0" y="0" width="198" height="197">
<g id="750f2e2667">
<path id="Vector" d="M0.700317 84.8017L84.8416 0.660397L197.026 112.844L112.884 196.986L0.700317 84.8017Z" fill="white"/>
</g>
</mask>
<g mask="url(#mask0_163_197)">
<g id="Group">
<g id="Clip path group_2">
<mask id="mask1_163_197" style="mask-type:luminance" maskUnits="userSpaceOnUse" x="29" y="29" width="139" height="139">
<g id="90c369de6c">
<path id="Vector_2" d="M139.625 57.7844C143.28 61.4393 146.646 65.3309 149.709 69.4459C152.773 73.5609 155.481 77.8206 157.847 82.238C160.201 86.6423 162.146 91.1123 163.698 95.6612C165.262 100.197 166.38 104.706 167.063 109.203C167.76 113.686 168.01 118.064 167.8 122.323C167.602 126.596 166.971 130.672 165.88 134.55C164.802 138.442 163.29 142.057 161.384 145.41C159.451 148.762 157.15 151.773 154.468 154.455C151.773 157.15 148.763 159.451 145.423 161.37C142.058 163.29 138.455 164.788 134.564 165.867C130.685 166.958 126.61 167.589 122.337 167.786C118.077 167.996 113.699 167.747 109.203 167.063C104.72 166.366 100.211 165.249 95.6616 163.697C91.1127 162.146 86.6559 160.187 82.2385 157.847C77.821 155.48 73.5614 152.772 69.4464 149.709C65.3313 146.646 61.4398 143.28 57.7849 139.625C54.1169 135.957 50.7512 132.065 47.6879 127.95C44.6247 123.835 41.9164 119.576 39.5499 115.158C37.2097 110.741 35.2508 106.284 33.6995 101.735C32.1481 97.1862 31.0306 92.6768 30.3338 88.1936C29.6502 83.6973 29.4004 79.3193 29.6107 75.0597C29.8079 70.7869 30.439 66.7113 31.5302 62.8329C32.6082 58.9414 34.107 55.3391 36.0265 51.9734C37.946 48.6341 40.2467 45.6234 42.9419 42.9282C45.6239 40.2462 48.6345 37.9455 51.987 36.0129C55.3395 34.1065 58.955 32.5946 62.8465 31.5166C66.7249 30.4254 70.8005 29.7943 75.0733 29.5971C79.333 29.3868 83.7109 29.6365 88.1941 30.3333C92.6904 31.017 97.1998 32.1345 101.736 33.699C106.284 35.2503 110.754 37.1961 115.159 39.5494C119.576 41.9159 123.836 44.6242 127.951 47.6875C132.066 50.7507 135.957 54.1164 139.625 57.7844Z" fill="white"/>
</g>
</mask>
<g mask="url(#mask1_163_197)">
<g id="Group_2">
<path id="Vector_3" d="M2.01501 83.8551L113.542 195.382L195.382 113.541L83.8555 2.01454L2.01501 83.8551Z" fill="url(#paint0_linear_163_197)"/>
</g>
</g>
</g>
</g>
</g>
</g>
<defs>
<linearGradient id="paint0_linear_163_197" x1="42.9353" y1="42.9348" x2="154.462" y2="154.461" gradientUnits="userSpaceOnUse">
<stop stop-color="#63F09C"/>
<stop offset="1" stop-color="#12A966"/>
</linearGradient>
</defs>
</svg>
